<?xml version="1.0" encoding="utf-8"?>
<!-- Generator: Adobe Illustrator 27.5.0, SVG Export Plug-In . SVG Version: 6.00 Build 0)  -->
<svg version="1.1" id="Calque_1" xmlns="http://www.w3.org/2000/svg" xmlns:xlink="http://www.w3.org/1999/xlink" x="0px" y="0px"
	 viewBox="0 0 121.3 124.8" style="enable-background:new 0 0 121.3 124.8;" xml:space="preserve">
<style type="text/css">
	.st0{fill:url(#SVGID_1_);}
	.st1{fill:url(#SVGID_00000047770131666773288900000013859344186429675657_);}
	.st2{fill:url(#SVGID_00000137844627051266923690000006194475416952637339_);}
	.st3{fill:url(#SVGID_00000064340671735532643950000006471880370539376313_);}
	.st4{fill:url(#SVGID_00000167374086741972979530000003802838888556418224_);}
</style>
<linearGradient id="SVGID_1_" gradientUnits="userSpaceOnUse" x1="-35.4857" y1="100.3326" x2="101.3654" y2="-38.3057">
	<stop  offset="0" style="stop-color:#FD2CAC"/>
	<stop  offset="0" style="stop-color:#FD2CAC"/>
	<stop  offset="0" style="stop-color:#C7599D"/>
	<stop  offset="1.659312e-04" style="stop-color:#CA569E"/>
	<stop  offset="3.080747e-04" style="stop-color:#D54DA1"/>
	<stop  offset="4.410147e-04" style="stop-color:#E63FA6"/>
	<stop  offset="5.586560e-04" style="stop-color:#FD2CAC"/>
	<stop  offset="6.417098e-02" style="stop-color:#F92CAB"/>
	<stop  offset="0.1322" style="stop-color:#EC2AA8"/>
	<stop  offset="0.2022" style="stop-color:#D628A2"/>
	<stop  offset="0.2738" style="stop-color:#B8249A"/>
	<stop  offset="0.3464" style="stop-color:#922090"/>
	<stop  offset="0.42" style="stop-color:#631B84"/>
	<stop  offset="0.4928" style="stop-color:#2C1576"/>
	<stop  offset="0.5413" style="stop-color:#03106B"/>
	<stop  offset="0.7115" style="stop-color:#631B84"/>
	<stop  offset="0.9927" style="stop-color:#FD2CAC"/>
</linearGradient>
<path class="st0" d="M9.7,0C4.8,0,0.8,3.5,0.1,8.2H0v106.9c3.3-3.3,5.2-5.2,8.5-8.5V9.7h103.3c3.3-3.3,5.2-5.2,8.5-8.5V0H9.7z"/>
<linearGradient id="SVGID_00000118368756184240843920000014469375989768333235_" gradientUnits="userSpaceOnUse" x1="23.9196" y1="158.9721" x2="160.7706" y2="20.3338">
	<stop  offset="0" style="stop-color:#FD2CAC"/>
	<stop  offset="0" style="stop-color:#FD2CAC"/>
	<stop  offset="0" style="stop-color:#C7599D"/>
	<stop  offset="1.659312e-04" style="stop-color:#CA569E"/>
	<stop  offset="3.080747e-04" style="stop-color:#D54DA1"/>
	<stop  offset="4.410147e-04" style="stop-color:#E63FA6"/>
	<stop  offset="5.586560e-04" style="stop-color:#FD2CAC"/>
	<stop  offset="6.417098e-02" style="stop-color:#F92CAB"/>
	<stop  offset="0.1322" style="stop-color:#EC2AA8"/>
	<stop  offset="0.2022" style="stop-color:#D628A2"/>
	<stop  offset="0.2738" style="stop-color:#B8249A"/>
	<stop  offset="0.3464" style="stop-color:#922090"/>
	<stop  offset="0.42" style="stop-color:#631B84"/>
	<stop  offset="0.4928" style="stop-color:#2C1576"/>
	<stop  offset="0.5413" style="stop-color:#03106B"/>
	<stop  offset="0.7115" style="stop-color:#631B84"/>
	<stop  offset="0.9927" style="stop-color:#FD2CAC"/>
</linearGradient>
<path style="fill:url(#SVGID_00000118368756184240843920000014469375989768333235_);" d="M112.8,18.2v96.9H9.4
	c-3.3,3.3-5.2,5.2-8.5,8.5v1.2h110.6c5.4,0,9.7-4.3,9.7-9.7V9.7C117.9,13,116.1,14.9,112.8,18.2z"/>
<text transform="matrix(1 0 0 1 -25.8241 180.8945)" style="display:none;enable-background:new    ; font-family:'AgencyFB-Reg'; font-size:50px;">Mkoody</text>
<text transform="matrix(1 0 0 1 -25.8013 223.0213)" style="display:none;enable-background:new    ; font-family:'AgencyFB-Reg'; font-size:50px;">Innovati</text>
<g>
	
		<linearGradient id="SVGID_00000015331233666451942180000003866156829511914924_" gradientUnits="userSpaceOnUse" x1="29.4673" y1="94.4242" x2="103.7652" y2="21.1476">
		<stop  offset="0" style="stop-color:#FD2CAC"/>
		<stop  offset="3.842694e-02" style="stop-color:#E72AA6"/>
		<stop  offset="0.139" style="stop-color:#B52499"/>
		<stop  offset="0.2443" style="stop-color:#871F8D"/>
		<stop  offset="0.3523" style="stop-color:#611B83"/>
		<stop  offset="0.4639" style="stop-color:#42177B"/>
		<stop  offset="0.5799" style="stop-color:#2A1475"/>
		<stop  offset="0.7023" style="stop-color:#191270"/>
		<stop  offset="0.8357" style="stop-color:#0F116E"/>
		<stop  offset="1" style="stop-color:#0C116D"/>
	</linearGradient>
	<path style="fill:url(#SVGID_00000015331233666451942180000003866156829511914924_);" d="M54.4,84.4l-15.2,1
		c-1.4,0.1-2.6-1.1-2.5-2.5l1-15.2c0-0.6-0.2-1.3-0.7-1.8c-1.5-1.5-4-0.5-4.1,1.5l-1.2,19.7c0,0.6,0.2,1.3,0.7,1.8l0.8,0.8
		c0.5,0.5,1.1,0.7,1.8,0.7L59.8,89l0.1-0.2l-3.7-3.7C55.8,84.6,55.1,84.4,54.4,84.4z"/>
	
		<linearGradient id="SVGID_00000075862980876613552060000016475607624768156301_" gradientUnits="userSpaceOnUse" x1="28.6627" y1="93.6084" x2="102.9606" y2="20.3318">
		<stop  offset="0" style="stop-color:#FD2CAC"/>
		<stop  offset="3.842694e-02" style="stop-color:#E72AA6"/>
		<stop  offset="0.139" style="stop-color:#B52499"/>
		<stop  offset="0.2443" style="stop-color:#871F8D"/>
		<stop  offset="0.3523" style="stop-color:#611B83"/>
		<stop  offset="0.4639" style="stop-color:#42177B"/>
		<stop  offset="0.5799" style="stop-color:#2A1475"/>
		<stop  offset="0.7023" style="stop-color:#191270"/>
		<stop  offset="0.8357" style="stop-color:#0F116E"/>
		<stop  offset="1" style="stop-color:#0C116D"/>
	</linearGradient>
	<path style="fill:url(#SVGID_00000075862980876613552060000016475607624768156301_);" d="M57.1,42.5L57,42.3
		c-1.6,0.3-2.5,2-1.8,3.4L69.9,76l0.1,0.2c1.6-0.3,2.5-2,1.8-3.4L57.1,42.5z"/>
	
		<linearGradient id="SVGID_00000075155255452024203630000004444837168122132412_" gradientUnits="userSpaceOnUse" x1="31.2053" y1="96.1865" x2="105.5032" y2="22.9099">
		<stop  offset="0" style="stop-color:#FD2CAC"/>
		<stop  offset="3.842694e-02" style="stop-color:#E72AA6"/>
		<stop  offset="0.139" style="stop-color:#B52499"/>
		<stop  offset="0.2443" style="stop-color:#871F8D"/>
		<stop  offset="0.3523" style="stop-color:#611B83"/>
		<stop  offset="0.4639" style="stop-color:#42177B"/>
		<stop  offset="0.5799" style="stop-color:#2A1475"/>
		<stop  offset="0.7023" style="stop-color:#191270"/>
		<stop  offset="0.8357" style="stop-color:#0F116E"/>
		<stop  offset="1" style="stop-color:#0C116D"/>
	</linearGradient>
	<path style="fill:url(#SVGID_00000075155255452024203630000004444837168122132412_);" d="M95.1,34.5l-0.8-0.9
		c-0.5-0.6-1.1-0.8-1.8-0.8l-24.8,1.4l-0.2,0.2l3.7,4.2c0.4,0.6,1.1,0.8,1.8,0.8l15.2-1c1.4-0.1,2.6,1.3,2.5,2.9l-1,17
		c0,0.8,0.2,1.6,0.7,2.1c1.5,1.6,4,0.6,4.1-1.7l1.3-22.1C95.8,35.8,95.5,35.1,95.1,34.5z"/>
</g>
</svg>
