<?xml version="1.0" encoding="UTF-8"?>
<svg id="Calque_1" xmlns="http://www.w3.org/2000/svg" version="1.1" viewBox="0 0 1091 258.7">
  <!-- Generator: Adobe Illustrator 29.1.0, SVG Export Plug-In . SVG Version: 2.1.0 Build 142)  -->
  <defs>
    <style>
      .st0 {
        fill: #2fa855;
      }

      .st1 {
        fill: none;
        stroke: #000;
        stroke-miterlimit: 10;
      }

      .st1, .st2, .st3, .st4 {
        isolation: isolate;
      }

      .st1, .st4 {
        font-family: TimesNewRomanPS-ItalicMT, 'Times New Roman';
        font-size: 40px;
        font-style: italic;
      }

      .st5, .st3 {
        fill: #5286c1;
      }

      .st3 {
        font-family: OpenSans-Bold, 'Open Sans';
        font-size: 60px;
        font-weight: 700;
      }

      .st6 {
        fill: #7e807f;
      }
    </style>
  </defs>
  <g class="st2">
    <g class="st2">
      <g class="st2">
        <g class="st2">
          <text class="st3" transform="translate(286.1 53.9)"><tspan x="0" y="0">INSTITUT</tspan></text>
        </g>
      </g>
    </g>
    <g class="st2">
      <g class="st2">
        <g class="st2">
          <text class="st3" transform="translate(286.1 125.9)"><tspan x="0" y="0">SUPERIEUR</tspan></text>
        </g>
      </g>
    </g>
    <g class="st2">
      <g class="st2">
        <g class="st2">
          <text class="st3" transform="translate(286.1 197.9)"><tspan x="0" y="0">D’AMBATOMIRAHAVAVY</tspan></text>
        </g>
      </g>
    </g>
  </g>
  <g class="st2">
    <g class="st2">
      <text class="st4" transform="translate(0 243.9)"><tspan x="0" y="0">&quot;Savoir, savoir-faire, savoir-être : bâtissons un avenir responsable.&quot;</tspan></text>
    </g>
    <g class="st2">
      <text class="st1" transform="translate(0 243.9)"><tspan x="0" y="0">&quot;Savoir, savoir-faire, savoir-être : bâtissons un avenir responsable.&quot;</tspan></text>
    </g>
  </g>
  <g class="st2">
    <g class="st2">
      <path class="st5" d="M104.1,24.2l-30.8,154.9c15.9-2.1,27.1-3.1,33.8-3.1,10.8,0,16.2,7.5,16.2,22.6-6.1-2.1-12.5-3.1-19.2-3.1s-14.4.6-23.8,1.9l-28.4,3.7c-10.1,1.4-17.2,2.1-21.3,2.1-7,0-11.9-1.7-14.8-5-2.9-3.3-4.7-9.4-5.2-18.2,5.9,3.2,12,4.9,18.4,4.9s9.3-.6,17.4-1.9L77.4,28c-9,1.5-16.7,2.2-23.3,2.2-11.5,0-17.2-6.7-17.2-20.2,3.2,2.2,7.3,3.2,12.2,3.2s14.7-1.1,26.2-3.2l19.7-3.7c13.7-2.5,24.2-3.7,31.4-3.7,11.2,0,17.7,7.5,19.4,22.6-4.7-2.2-9.5-3.4-14.6-3.4s-13.6.6-21.6,1.7c-1.2.2-3.1.5-5.5.7Z"/>
    </g>
  </g>
  <g class="st2">
    <g class="st2">
      <path class="st6" d="M87.8,146.5c0,13.5,3.7,24.2,11.2,31.9,7.4,7.7,17.7,11.6,30.8,11.6s21.7-3.5,30.3-10.5c8.6-7,12.8-15.2,12.8-24.5s-9.4-23.9-28.3-41.5l-13.7-12.7c-17.5-16.3-26.3-31.3-26.3-45s6.2-29.1,18.7-39.4c12.5-10.3,28.3-15.5,47.6-15.5s18.5,1.6,24.8,4.7,9.5,7.2,9.5,12.2-2.2,10.6-6.7,17.1c-7.2-14-19-20.9-35.3-20.9s-18.7,3.1-25.6,9.4c-6.9,6.3-10.4,14-10.4,23.2s1.1,10.8,3.4,14.1c2.3,3.2,9.4,10.3,21.2,21.2l11.2,10.3c20.4,19,30.7,36.1,30.7,51.2s-7,32.2-20.9,43.8c-14,11.6-31.5,17.4-52.7,17.4s-25.9-3.3-35.2-10c-9.3-6.6-13.9-15-13.9-25.2s5.6-14.5,16.8-22.9Z"/>
    </g>
  </g>
  <g class="st2">
    <g class="st2">
      <path class="st0" d="M145.9,138.7l-2.5,4.7c-10.5,19.5-15.7,34.6-15.7,45.4s1.2,6.2,3.6,9.2c-2,.7-6.5,2.3-13.5,4.9-3.2,1.2-6.3,1.7-9.2,1.7-5.8,0-8.7-2.8-8.7-8.3,0-11.5,7.2-29.2,21.6-52.8l3.9-6.4h-6.4c-13.6,0-24.2,2.1-31.7,6.4,3.9-14,14.4-21.1,31.5-21.1l15.5.4,3.4-5c13-19.6,33-46,59.8-79.1,9.1-11.2,15.8-18.2,20.3-20.9,4.5-2.7,13.2-5.2,26-7.5-2.4,15-3.6,28.9-3.6,41.7,0,34.1,3.9,68.7,11.8,103.8,4.3,19.3,10.9,31.7,19.8,37.3-7.8,7.7-14.5,11.6-20.1,11.6-13.1,0-23.3-22.5-30.4-67.5-13.7,1.5-27.5,2.2-41.5,2.2l-34-.6ZM154.9,124l25.2.6c17.2,0,30.4-.6,39.5-1.7-3.8-29.2-5.7-53.3-5.7-72.5v-9.3c-2.6,3.5-8.8,11-18.3,22.7-17.3,21.2-30,39.7-38,55.5l-2.6,4.9Z"/>
    </g>
  </g>
</svg>