<?xml version="1.0" encoding="UTF-8"?>
<svg id="Calque_1" xmlns="http://www.w3.org/2000/svg" version="1.1" viewBox="0 0 187.6 143.1">
  <!-- Generator: Adobe Illustrator 29.1.0, SVG Export Plug-In . SVG Version: 2.1.0 Build 142)  -->
  <defs>
    <style>
      .st0 {
        fill: #2fa855;
      }

      .st1 {
        fill: #5286c1;
      }

      .st2 {
        isolation: isolate;
      }

      .st3 {
        fill: #7e807f;
      }
    </style>
  </defs>
  <g class="st2">
    <g class="st2">
      <path class="st1" d="M69.8,16.4l-21.6,108.8c11.1-1.5,19.1-2.2,23.7-2.2,7.6,0,11.4,5.3,11.4,15.8-4.3-1.5-8.8-2.2-13.5-2.2s-10.1.4-16.7,1.3l-20,2.6c-7.1,1-12.1,1.5-15,1.5-4.9,0-8.4-1.2-10.4-3.5-2-2.3-3.3-6.6-3.7-12.8,4.1,2.3,8.5,3.4,13,3.4s6.5-.4,12.3-1.3L51,19c-6.3,1.1-11.8,1.6-16.4,1.6-8.1,0-12.1-4.7-12.1-14.2,2.3,1.5,5.1,2.3,8.6,2.3s10.3-.8,18.4-2.3l13.8-2.6c9.6-1.8,17-2.6,22.1-2.6,7.9,0,12.4,5.3,13.7,15.8-3.3-1.6-6.7-2.4-10.2-2.4s-9.5.4-15.1,1.2c-.9.2-2.2.4-3.9.5Z"/>
    </g>
  </g>
  <g class="st2">
    <g class="st2">
      <path class="st3" d="M58.4,102.3c0,9.5,2.6,17,7.8,22.4,5.2,5.4,12.4,8.1,21.7,8.1s15.3-2.5,21.3-7.4c6-4.9,9-10.7,9-17.2s-6.6-16.8-19.9-29.2l-9.6-8.9c-12.3-11.4-18.5-22-18.5-31.6s4.4-20.4,13.1-27.7S103.2,0,116.8,0s13,1.1,17.4,3.3,6.7,5,6.7,8.5-1.6,7.4-4.7,12c-5.1-9.8-13.3-14.7-24.8-14.7s-13.1,2.2-18,6.6c-4.9,4.4-7.3,9.8-7.3,16.3s.8,7.6,2.4,9.9c1.6,2.3,6.6,7.2,14.9,14.9l7.9,7.3c14.4,13.4,21.5,25.4,21.5,36s-4.9,22.6-14.7,30.8c-9.8,8.1-22.2,12.2-37,12.2s-18.2-2.3-24.7-7c-6.5-4.7-9.8-10.6-9.8-17.7s3.9-10.2,11.8-16.1Z"/>
    </g>
  </g>
  <g class="st2">
    <g class="st2">
      <path class="st0" d="M99.1,96.8l-1.8,3.3c-7.4,13.7-11,24.3-11,31.9s.8,4.4,2.5,6.5c-1.4.5-4.6,1.6-9.5,3.4-2.3.8-4.4,1.2-6.5,1.2-4.1,0-6.1-2-6.1-5.9,0-8.1,5-20.5,15.1-37.1l2.7-4.5h-4.5c-9.6,0-17,1.5-22.2,4.5,2.7-9.9,10.1-14.8,22.1-14.8l10.9.3,2.4-3.5c9.2-13.8,23.2-32.3,42-55.6,6.4-7.9,11.1-12.8,14.3-14.7,3.2-1.9,9.2-3.7,18.3-5.3-1.7,10.5-2.5,20.3-2.5,29.3,0,24,2.8,48.3,8.3,72.9,3,13.5,7.7,22.3,13.9,26.2-5.5,5.4-10.2,8.1-14.1,8.1-9.2,0-16.3-15.8-21.4-47.5-9.6,1.1-19.3,1.6-29.2,1.6l-23.9-.4ZM105.5,86.5l17.7.4c12.1,0,21.3-.4,27.8-1.2-2.7-20.5-4-37.5-4-51v-6.6c-1.8,2.5-6.2,7.8-12.9,15.9-12.1,14.9-21,27.9-26.7,39l-1.8,3.4Z"/>
    </g>
  </g>
</svg>